<svg width="16" height="16" viewBox="0 0 16 16" fill="none" xmlns="http://www.w3.org/2000/svg">
<path d="M11.1667 8.44008L5.83337 14.4401C5.71659 14.5725 5.55202 14.6532 5.37579 14.6645C5.19955 14.6757 5.02606 14.6166 4.89338 14.5001C4.76092 14.3833 4.68021 14.2187 4.66896 14.0425C4.65771 13.8663 4.71684 13.6928 4.83338 13.5601L9.77337 8.00008L4.83338 2.44008C4.72562 2.3063 4.67367 2.13608 4.68834 1.96493C4.70302 1.79378 4.7832 1.6349 4.91216 1.52142C5.04111 1.40793 5.2089 1.34861 5.38053 1.35581C5.55215 1.36301 5.71438 1.43619 5.83337 1.56008L11.1667 7.56008C11.2736 7.68174 11.3325 7.83814 11.3325 8.00008C11.3325 8.16201 11.2736 8.31842 11.1667 8.44008Z" fill="#6C5DD3"/>
</svg>
