<svg width="16" height="16" viewBox="0 0 16 16" fill="none" xmlns="http://www.w3.org/2000/svg">
<path d="M7.57042 11.1771L1.57042 5.84375C1.43796 5.72696 1.35725 5.56239 1.346 5.38616C1.33475 5.20993 1.39389 5.03643 1.51042 4.90375C1.62721 4.77129 1.79178 4.69058 1.96801 4.67933C2.14425 4.66808 2.31774 4.72722 2.45042 4.84375L8.01042 9.78374L13.5704 4.84375C13.7042 4.736 13.8744 4.68404 14.0456 4.69872C14.2167 4.7134 14.3756 4.79357 14.4891 4.92253C14.6026 5.05149 14.6619 5.21927 14.6547 5.3909C14.6475 5.56253 14.5743 5.72475 14.4504 5.84375L8.45042 11.1771C8.32876 11.284 8.17236 11.3429 8.01042 11.3429C7.84848 11.3429 7.69208 11.284 7.57042 11.1771Z" fill="#6C5DD3"/>
</svg>
