<svg width="16" height="16" viewBox="0 0 16 16" fill="none" xmlns="http://www.w3.org/2000/svg">
<path d="M7.57042 11.1771L1.57042 5.84376C1.43796 5.72697 1.35725 5.5624 1.346 5.38617C1.33475 5.20994 1.39389 5.03644 1.51042 4.90376C1.62721 4.7713 1.79178 4.69059 1.96801 4.67934C2.14425 4.66809 2.31774 4.72722 2.45042 4.84376L8.01042 9.78375L13.5704 4.84376C13.7042 4.73601 13.8744 4.68405 14.0456 4.69873C14.2167 4.71341 14.3756 4.79358 14.4891 4.92254C14.6026 5.0515 14.6619 5.21928 14.6547 5.39091C14.6475 5.56254 14.5743 5.72476 14.4504 5.84376L8.45042 11.1771C8.32876 11.284 8.17236 11.3429 8.01042 11.3429C7.84848 11.3429 7.69208 11.284 7.57042 11.1771Z" fill="#6C5DD3"/>
</svg>
