<svg width="24" height="24" viewBox="0 0 24 24" fill="none" xmlns="http://www.w3.org/2000/svg">
<path d="M3 11.0002H10C10.2652 11.0002 10.5196 10.8948 10.7071 10.7073C10.8946 10.5197 11 10.2654 11 10.0002V3.00015C11 2.73494 10.8946 2.48058 10.7071 2.29305C10.5196 2.10551 10.2652 2.00015 10 2.00015H3C2.73478 2.00015 2.48043 2.10551 2.29289 2.29305C2.10536 2.48058 2 2.73494 2 3.00015V10.0002C2 10.2654 2.10536 10.5197 2.29289 10.7073C2.48043 10.8948 2.73478 11.0002 3 11.0002ZM4 4.00015H9V9.00015H4V4.00015Z" fill="#AAAAAA"/>
<path d="M14 11.0002H21C21.2652 11.0002 21.5196 10.8948 21.7071 10.7073C21.8946 10.5197 22 10.2654 22 10.0002V3.00015C22 2.73494 21.8946 2.48058 21.7071 2.29305C21.5196 2.10551 21.2652 2.00015 21 2.00015H14C13.7348 2.00015 13.4804 2.10551 13.2929 2.29305C13.1054 2.48058 13 2.73494 13 3.00015V10.0002C13 10.2654 13.1054 10.5197 13.2929 10.7073C13.4804 10.8948 13.7348 11.0002 14 11.0002ZM15 4.00015H20V9.00015H15V4.00015Z" fill="#AAAAAA"/>
<path d="M3 21.9998H10C10.2652 21.9998 10.5196 21.8945 10.7071 21.707C10.8946 21.5194 11 21.2651 11 20.9998V13.9998C11 13.7346 10.8946 13.4803 10.7071 13.2927C10.5196 13.1052 10.2652 12.9998 10 12.9998H3C2.73478 12.9998 2.48043 13.1052 2.29289 13.2927C2.10536 13.4803 2 13.7346 2 13.9998V20.9998C2 21.2651 2.10536 21.5194 2.29289 21.707C2.48043 21.8945 2.73478 21.9998 3 21.9998ZM4 14.9998H9V19.9998H4V14.9998Z" fill="#AAAAAA"/>
<path d="M14 21.9998H21C21.2652 21.9998 21.5196 21.8945 21.7071 21.707C21.8946 21.5194 22 21.2651 22 20.9998V13.9998C22 13.7346 21.8946 13.4803 21.7071 13.2927C21.5196 13.1052 21.2652 12.9998 21 12.9998H14C13.7348 12.9998 13.4804 13.1052 13.2929 13.2927C13.1054 13.4803 13 13.7346 13 13.9998V20.9998C13 21.2651 13.1054 21.5194 13.2929 21.707C13.4804 21.8945 13.7348 21.9998 14 21.9998ZM15 14.9998H20V19.9998H15V14.9998Z" fill="#AAAAAA"/>
</svg>
