<svg width="8" height="14" viewBox="0 0 8 14" fill="none" xmlns="http://www.w3.org/2000/svg">
<path d="M0.833423 7.43995L6.16675 13.44C6.28353 13.5724 6.4481 13.6531 6.62434 13.6644C6.80057 13.6756 6.97407 13.6165 7.10675 13.5C7.2392 13.3832 7.31992 13.2186 7.33116 13.0424C7.34241 12.8661 7.28328 12.6926 7.16675 12.56L2.22675 6.99995L7.16675 1.43995C7.2745 1.30617 7.32645 1.13596 7.31178 0.964809C7.2971 0.793658 7.21692 0.634777 7.08797 0.521294C6.95901 0.407811 6.79123 0.348487 6.6196 0.355689C6.44797 0.362892 6.28574 0.436066 6.16675 0.559954L0.833423 6.55995C0.726543 6.68161 0.6676 6.83802 0.6676 6.99995C0.6676 7.16189 0.726543 7.3183 0.833423 7.43995Z" fill="white"/>
</svg>
