<svg width="24" height="24" viewBox="0 0 24 24" fill="none" xmlns="http://www.w3.org/2000/svg">
<path d="M3 5H21C21.2652 5 21.5196 4.89464 21.7071 4.7071C21.8946 4.51957 22 4.26521 22 4C22 3.73478 21.8946 3.48043 21.7071 3.29289C21.5196 3.10536 21.2652 3 21 3H3C2.73478 3 2.48043 3.10536 2.29289 3.29289C2.10536 3.48043 2 3.73478 2 4C2 4.26521 2.10536 4.51957 2.29289 4.7071C2.48043 4.89464 2.73478 5 3 5Z" fill="#AAAAAA"/>
<path d="M3 13.0002H21C21.2652 13.0002 21.5196 12.8948 21.7071 12.7073C21.8946 12.5197 22 12.2654 22 12.0002C22 11.7349 21.8946 11.4806 21.7071 11.293C21.5196 11.1055 21.2652 11.0002 21 11.0002H3C2.73478 11.0002 2.48043 11.1055 2.29289 11.293C2.10536 11.4806 2 11.7349 2 12.0002C2 12.2654 2.10536 12.5197 2.29289 12.7073C2.48043 12.8948 2.73478 13.0002 3 13.0002Z" fill="#AAAAAA"/>
<path d="M3 20.9999H21C21.2652 20.9999 21.5196 20.8945 21.7071 20.707C21.8946 20.5194 22 20.2651 22 19.9999C22 19.7346 21.8946 19.4803 21.7071 19.2927C21.5196 19.1052 21.2652 18.9998 21 18.9998H3C2.73478 18.9998 2.48043 19.1052 2.29289 19.2927C2.10536 19.4803 2 19.7346 2 19.9999C2 20.2651 2.10536 20.5194 2.29289 20.707C2.48043 20.8945 2.73478 20.9999 3 20.9999Z" fill="#AAAAAA"/>
</svg>
