<svg width="32" height="32" viewBox="0 0 32 32" fill="none" xmlns="http://www.w3.org/2000/svg">
<circle cx="16" cy="16" r="16" fill="white" fill-opacity="0.18"/>
<path d="M19.1667 16.44L13.8334 22.44C13.7166 22.5724 13.552 22.6531 13.3758 22.6644C13.1996 22.6756 13.0261 22.6165 12.8934 22.5C12.7609 22.3832 12.6802 22.2186 12.669 22.0424C12.6577 21.8661 12.7168 21.6926 12.8334 21.56L17.7734 16L12.8334 10.44C12.7256 10.3062 12.6737 10.136 12.6883 9.96481C12.703 9.79366 12.7832 9.63478 12.9122 9.52129C13.0411 9.40781 13.2089 9.34849 13.3805 9.35569C13.5522 9.36289 13.7144 9.43607 13.8334 9.55995L19.1667 15.56C19.2736 15.6816 19.3325 15.838 19.3325 16C19.3325 16.1619 19.2736 16.3183 19.1667 16.44Z" fill="white"/>
</svg>
