<svg width="20" height="24" viewBox="0 0 20 24" fill="none" xmlns="http://www.w3.org/2000/svg">
<path d="M19.2959 8.6858C19.1795 8.44064 18.9322 8.28427 18.6607 8.28427H11.6086L15.877 1.06083C16.0055 0.843469 16.0075 0.573844 15.8823 0.354609C15.7572 0.135375 15.5241 -9.37014e-05 15.2716 4.86277e-08L9.24657 0.000656299C8.99654 0.000750049 8.76531 0.1335 8.63935 0.349453L0.731547 13.905C0.604656 14.1224 0.603766 14.3911 0.729156 14.6094C0.854547 14.8277 1.08709 14.9624 1.33886 14.9624H8.3461L6.30517 23.1263C6.22529 23.4457 6.37787 23.7779 6.67225 23.9255C6.77265 23.9757 6.88032 24 6.98696 24C7.19303 24 7.39496 23.9094 7.53212 23.7413L19.2056 9.43186C19.3772 9.22148 19.4123 8.93105 19.2959 8.6858Z" fill="#6C5DD3"/>
</svg>
