<svg width="24" height="24" viewBox="0 0 24 24" fill="none" xmlns="http://www.w3.org/2000/svg">
<path d="M10.2932 16.2932L8.00016 18.5861V3.00015C8.00016 2.73494 7.89481 2.48058 7.70727 2.29305C7.51973 2.10551 7.26538 2.00015 7.00016 2.00015C6.73495 2.00015 6.48059 2.10551 6.29306 2.29305C6.10552 2.48058 6.00016 2.73494 6.00016 3.00015V18.5861L3.70716 16.2932C3.51856 16.111 3.26596 16.0102 3.00376 16.0125C2.74156 16.0148 2.49075 16.1199 2.30534 16.3053C2.11994 16.4907 2.01477 16.7416 2.01249 17.0038C2.01021 17.2659 2.111 17.5186 2.29316 17.7072L6.29316 21.7072C6.48086 21.8943 6.73513 21.9995 7.00021 21.9995C7.2653 21.9995 7.51956 21.8943 7.70726 21.7072L11.7073 17.7072C11.8901 17.5187 11.9914 17.2658 11.9894 17.0033C11.9874 16.7407 11.8822 16.4894 11.6965 16.3038C11.5109 16.1181 11.2596 16.0129 10.997 16.0109C10.7345 16.0089 10.4816 16.1103 10.2932 16.2932Z" fill="#AAAAAA"/>
<path d="M11.0002 6.0003H21.0002C21.2655 6.0003 21.5198 5.89494 21.7074 5.70741C21.8949 5.51987 22.0002 5.26552 22.0002 5.0003C22.0002 4.73509 21.8949 4.48073 21.7074 4.2932C21.5198 4.10566 21.2655 4.00031 21.0002 4.00031H11.0002C10.735 4.00031 10.4807 4.10566 10.2931 4.2932C10.1056 4.48073 10.0002 4.73509 10.0002 5.0003C10.0002 5.26552 10.1056 5.51987 10.2931 5.70741C10.4807 5.89494 10.735 6.0003 11.0002 6.0003Z" fill="#AAAAAA"/>
<path d="M21.0002 8.00015H11.0002C10.735 8.00015 10.4807 8.10551 10.2931 8.29305C10.1056 8.48058 10.0002 8.73493 10.0002 9.00015C10.0002 9.26537 10.1056 9.51972 10.2931 9.70726C10.4807 9.89479 10.735 10.0001 11.0002 10.0001H21.0002C21.2655 10.0001 21.5198 9.89479 21.7074 9.70726C21.8949 9.51972 22.0002 9.26537 22.0002 9.00015C22.0002 8.73493 21.8949 8.48058 21.7074 8.29305C21.5198 8.10551 21.2655 8.00015 21.0002 8.00015Z" fill="#AAAAAA"/>
<path d="M18.0002 12H11.0002C10.735 12 10.4807 12.1054 10.2931 12.2929C10.1056 12.4804 10.0002 12.7348 10.0002 13C10.0002 13.2652 10.1056 13.5196 10.2931 13.7071C10.4807 13.8947 10.735 14 11.0002 14H18.0002C18.2655 14 18.5198 13.8947 18.7074 13.7071C18.8949 13.5196 19.0002 13.2652 19.0002 13C19.0002 12.7348 18.8949 12.4804 18.7074 12.2929C18.5198 12.1054 18.2655 12 18.0002 12Z" fill="#AAAAAA"/>
</svg>
