<svg width="24" height="24" viewBox="0 0 24 24" fill="none" xmlns="http://www.w3.org/2000/svg">
<path d="M11.9999 2.39999C6.6983 2.39999 2.3999 6.69839 2.3999 12C2.3999 14.1024 3.0767 16.0488 4.2263 17.6304L2.9063 21.1008L6.7151 20.016C8.2295 21.0168 10.0463 21.6 11.9999 21.6C17.3015 21.6 21.5999 17.3016 21.5999 12C21.5999 6.69839 17.3015 2.39999 11.9999 2.39999V2.39999ZM17.1023 15.9768L16.0799 16.9992C15.0047 18.0744 12.1535 16.8912 9.6263 14.364C7.0967 11.8344 5.9663 8.98319 6.9887 7.90799L8.0111 6.88559C8.3879 6.50879 9.0335 6.50879 9.4631 6.88559L10.9703 8.39279C11.5079 8.93039 11.2919 9.84479 10.5935 10.0584C10.1087 10.2216 9.7871 10.7592 9.9479 11.244C10.2167 12.372 11.6687 13.7712 12.7463 14.04C13.2287 14.148 13.7687 13.8792 13.9295 13.3944C14.1431 12.696 15.0599 12.48 15.5975 13.0176L17.1023 14.5248C17.4791 14.9016 17.4791 15.5472 17.1023 15.9768V15.9768Z" fill="white"/>
</svg>
